<svg xmlns="http://www.w3.org/2000/svg" xmlns:xlink="http://www.w3.org/1999/xlink" viewBox="0 0 79.97 52.97" fill="#fff" fill-rule="evenodd" stroke="#000" stroke-linecap="round" stroke-linejoin="round"><use xlink:href="#A" x="6.485" y="6.485"/><symbol id="A" overflow="visible"><g stroke="none"><path d="M3.593 24.358c0-12.127 16.083-21.971 35.927-21.971 10.636 0 20.156 2.789 26.719 7.263C59.663 3.813 48.703 0 36.317 0 16.213 0 0 9.922 0 22.231c0 6.809 5.188 12.97 13.035 17.043-5.901-3.956-9.468-9.144-9.468-14.916z" fill="#1c74bb"/><path d="M21.102 17.484h.065l-.778 8.106h-2.075zM10.661 31.673h5.512l.973-2.724h2.918l-.195 2.724h5.448l.13-17.38h-7.198zm18.988-17.38h6.939l.713 10.506h.065l2.27-10.506h4.539l-3.891 17.38h-6.874l-.843-10.246-2.205 10.246h-4.54zm22.361 4.799a3.63 3.63 0 0 0 .13-1.362c-.13-.324-.389-.454-.973-.454s-1.038.649-1.232 1.297c-.648 3.243 7.198 1.297 5.837 7.588-.973 4.604-4.086 6.096-7.458 6.096s-6.809-.584-5.512-5.577h5.253c-.133.551-.177 1.121-.13 1.686.065.389.259.584.713.584.713 0 1.362-.649 1.556-1.492.843-3.826-7.134-1.362-5.772-7.717.195-1.781 1.092-3.411 2.491-4.531s3.186-1.636 4.967-1.436c5.188 0 5.707 2.464 5.188 5.318zm7.847-4.799h5.188l-3.697 17.38h-5.383z"/><path d="M26.252 31.258c.065-.195.908-4.021 1.868-8.56l1.738-8.197h6.718l.169 2.14.35 5.227c.104 1.686.259 3.035.389 2.983s.674-2.412 1.258-5.227l1.077-5.11h2.153c1.167 0 2.153.052 2.153.13s-.804 3.813-1.79 8.34l-1.79 8.431c0 .13-1.518.182-3.372.13l-3.372-.078-.428-5.097-.61-4.669-1.193 5.162-1.038 4.76h-2.205c-1.634 0-2.153-.091-2.075-.35zm-15.189.104l7.211-16.861h7.069v17.095h-5.188l.324-2.763h-3.243l-.908 2.763h-2.75c-1.297 0-2.594-.104-2.529-.259zm9.857-9.079l.454-4.15c.078-.337.039-.623-.078-.623-.22 0-2.853 7.328-2.853 7.912 0 .221.389.35 1.064.35h1.063zm24.643 9.624c-2.036-.519-3.074-2.075-2.594-4.021l.182-.947h4.903l.091 1.038c.065.739.233 1.064.597 1.128.778.156 1.842-1.012 1.842-2.049s-.804-1.816-2.763-2.464a7.79 7.79 0 0 1-2.205-1.232c-.752-.7-.83-.947-.83-2.438 0-1.336.181-1.997.908-3.398 1.245-2.412 2.594-3.32 5.655-3.502 3.995-.233 5.837.908 5.837 3.541v1.362h-4.643l-.091-.778c-.078-.648-.221-.752-.908-.752-.597 0-.908.195-1.232.726-.648 1.167-.104 1.985 1.907 2.75 2.386.908 3.58 2.01 3.891 3.45.337 2.516-1.466 5.798-3.891 7.043a12.97 12.97 0 0 1-6.446.519zm10.948-.649l3.476-16.278c.13-.415.493-.48 2.594-.48 1.349 0 2.594.104 2.594.22 0 .285-3.268 15.733-3.476 16.381-.13.415-.519.48-2.594.48-1.725 0-2.594-.104-2.594-.324z" fill="#000" fill-rule="nonzero"/></g></symbol></svg>